<mxfile host="65bd71144e">
    <diagram id="Sl-sDhZRdzZRjDKmcvGr" name="Page-1">
        <mxGraphModel dx="386" dy="184" grid="1" gridSize="10" guides="1" tooltips="1" connect="1" arrows="1" fold="1" page="1" pageScale="1" pageWidth="1169" pageHeight="827" background="none" math="0" shadow="0">
            <root>
                <mxCell id="0"/>
                <mxCell id="1" parent="0"/>
                <mxCell id="2" value="&lt;font size=&quot;1&quot; color=&quot;#ffb366&quot;&gt;&lt;b style=&quot;font-size: 50px&quot;&gt;HEI&lt;/b&gt;&lt;/font&gt;" style="text;html=1;align=center;verticalAlign=middle;resizable=0;points=[];autosize=1;strokeColor=none;fillColor=none;" vertex="1" parent="1">
                    <mxGeometry x="385" y="185" width="100" height="30" as="geometry"/>
                </mxCell>
                <mxCell id="3" value="" style="shape=partialRectangle;whiteSpace=wrap;html=1;bottom=0;right=0;fillColor=none;fontSize=50;fontColor=#FFB366;strokeWidth=4;strokeColor=#FFB366;" vertex="1" parent="1">
                    <mxGeometry x="370" y="160" width="40" height="20" as="geometry"/>
                </mxCell>
                <mxCell id="4" value="" style="shape=partialRectangle;whiteSpace=wrap;html=1;bottom=0;right=0;fillColor=none;fontSize=50;fontColor=#FFB366;strokeWidth=4;strokeColor=#FFB366;rotation=-180;" vertex="1" parent="1">
                    <mxGeometry x="460" y="215" width="35" height="20" as="geometry"/>
                </mxCell>
            </root>
        </mxGraphModel>
    </diagram>
</mxfile>